<svg xmlns="http://www.w3.org/2000/svg" viewBox="0 0 1157 550"><path fill="none" d="M-42.703 284.21l.339-280 1363 1.646-.339 280z"/><path fill="#FFF" d="M26.8 225.7h10.9v2h-34v-2h10.7V6.2H3.7v-2H59v59.3h-2.3c0-23.2-1.3-38.6-3.7-46.1C50.5 10 44.7 6.2 35.7 6.2h-8.9v97.3c4.6 0 8.1-2.1 10.5-6.2 2.4-4.1 3.6-12.2 3.6-24.3h2.3v63.1h-2.3c0-12.1-1.1-20.2-3.3-24.3-2.2-4.1-5.5-6.2-9.9-6.2l-.9 120.1zm233-15.9c0 5.8-1.9 10.5-5.8 14.1-3.8 3.6-9.1 5.5-15.8 5.5-6.7 0-12.1-2-16.3-5.9-4.1-3.9-6.2-8.9-6.2-14.8V23.2c0-5.9 2.1-10.9 6.2-14.8 4.1-3.9 9.5-5.9 16.3-5.9 6.3 0 11.5 2.2 15.6 6.6 4 4.4 6 9.6 6 15.6v185.1zm-31.7 7.6c0 2.9.8 5.3 2.5 7.2 1.7 1.9 4.2 2.9 7.6 2.9 2.8 0 5-1 6.7-2.9 1.7-1.9 2.5-4.3 2.5-7.2V14.5c0-6.7-3.1-10.1-9.2-10.1-3 0-5.4 1-7.3 2.9-1.9 1.9-2.8 4.3-2.8 7.2v202.9zm230.7-8.4v-84.4c0-4.5-1-7.4-3-8.7-2-1.3-4.1-1.9-6.4-1.9h-8.5v112.3h10.9v2h-34v-2h10.7V6.2h-10.7v-2h31.7c6.5 0 11.8 2.3 15.7 6.8 3.9 4.5 5.9 9.7 5.9 15.7v67.9c0 8.4-3.9 14.3-11.8 17.6 7.9 3.4 11.8 10 11.8 19.5v84.2c0 4.4 1 7.2 3 8.5 2 1.2 4.2 1.9 6.5 1.9l.9 2h-10.8c-4.1 0-7.1-1.9-9-5.6-2-3.8-2.9-8.3-2.9-13.7zm-17.9-97.1h8.5c2.8 0 5.1-1 6.8-2.9 1.7-1.9 2.6-4.2 2.6-6.9V16.3c0-6.7-3.1-10.1-9.4-10.1h-8.5v105.7zM707.5 4.2h27.1v2h-10.9v219.5h10.9v2h-34v-2h10.7V6.2l-31.1 221.5h-4L651.1 6.2v219.5H662v2h-25.9v-2H647V6.2h-10.9v-2h27.2L683 178.7 707.5 4.2zm235.4 223.5h-55.3v-2h10.7V6.2h-10.7v-2h55.3v59.3h-2.3c0-23.2-1.3-38.6-3.7-46.1-2.5-7.5-8.3-11.2-17.3-11.2h-8.9v97.3c4.6 0 8.1-2.1 10.5-6.2 2.4-4.1 3.6-12.2 3.6-24.3h2.3v63.1h-2.3c0-12.1-1.1-20.2-3.3-24.3-2.2-4.1-5.5-6.2-9.9-6.2l-.9 120.1h8.9c8.8 0 14.5-3.8 17.1-11.4 2.6-7.6 3.9-22.9 3.9-45.9h2.3v59.3zm193.5-18.7v-84.4c0-4.5-1-7.4-3-8.7s-4.1-1.9-6.4-1.9h-8.5v112.3h10.9v2h-34v-2h10.7V6.2h-10.7v-2h31.7c6.5 0 11.8 2.3 15.7 6.8 3.9 4.5 5.9 9.7 5.9 15.7v67.9c0 8.4-3.9 14.3-11.8 17.6 7.9 3.4 11.8 10 11.8 19.5v84.2c0 4.4 1 7.2 3 8.5 2 1.2 4.2 1.9 6.5 1.9l.9 2h-10.8c-4.1 0-7.1-1.9-9-5.6s-2.9-8.3-2.9-13.7zm-17.8-97.1h8.5c2.8 0 5.1-1 6.8-2.9 1.7-1.9 2.6-4.2 2.6-6.9V16.3c0-6.7-3.1-10.1-9.4-10.1h-8.5v105.7z"/><path fill="none" d="M-41.5 318h1363v280h-1363z"/><path fill="#FFF" d="M49.2 440.1c2.3 3.8 3.5 8.3 3.5 13.2v69.1c0 6-2.1 10.9-6.2 14.8-4.1 3.9-9.6 5.9-16.3 5.9-6.7 0-12-1.8-15.8-5.5-3.8-3.6-5.8-8.4-5.8-14.1V463H21v68c0 2.9.8 5.3 2.5 7.2 1.7 1.9 3.9 2.9 6.7 2.9 3 0 5.4-1 7.3-2.9 1.9-1.9 2.8-4.3 2.8-7.2v-77.5c0-1.9-.1-3.3-.4-4.3-.3-1-.9-2.4-1.9-4.3l-27.4-42.6c-1.3-1.9-2-6.8-2-14.7V337c0-5.9 2.1-10.9 6.2-14.8 4.1-3.9 9.5-5.9 16.3-5.9 6.3 0 11.5 2.3 15.6 6.8 4 4.5 6 9.7 6 15.7v51H40.3v-61.3c0-6.7-3.1-10.1-9.2-10.1-3 0-5.4 1-7.3 2.9-1.9 1.9-2.8 4.3-2.8 7.2V388c0 2.3 0 4.3.1 5.9.1 1.6.6 3.2 1.4 4.7l26.7 41.5z"/><path fill="none" d="M1053.5 318h1363v280h-1363z"/><path fill="#FFF" d="M1144.2 440.1c2.3 3.8 3.5 8.3 3.5 13.2v69.1c0 6-2.1 10.9-6.2 14.8-4.1 3.9-9.6 5.9-16.3 5.9-6.7 0-12-1.8-15.8-5.5-3.8-3.6-5.8-8.4-5.8-14.1V463h12.4v68c0 2.9.8 5.3 2.5 7.2 1.7 1.9 3.9 2.9 6.7 2.9 3 0 5.4-1 7.3-2.9 1.9-1.9 2.8-4.3 2.8-7.2v-77.5c0-1.9-.1-3.3-.4-4.3-.3-1-.9-2.4-1.9-4.3l-27.4-42.6c-1.3-1.9-2-6.8-2-14.7V337c0-5.9 2.1-10.9 6.2-14.8 4.1-3.9 9.5-5.9 16.3-5.9 6.3 0 11.5 2.3 15.6 6.8 4 4.5 6 9.7 6 15.7v51h-12.4v-61.3c0-6.7-3.1-10.1-9.2-10.1-3 0-5.4 1-7.3 2.9-1.9 1.9-2.8 4.3-2.8 7.2V388c0 2.3 0 4.3.1 5.9.1 1.6.6 3.2 1.4 4.7l26.7 41.5z"/><path fill="none" d="M162.5 320h1363v280h-1363z"/><path fill="#FFF" d="M263.9 543.5h-55.3v-2h10.7V322h-10.7v-2h55.3v59.3h-2.3c0-23.2-1.3-38.6-3.7-46.1-2.5-7.5-8.3-11.2-17.3-11.2h-8.9v97.3c4.6 0 8.1-2.1 10.5-6.2 2.4-4.1 3.6-12.2 3.6-24.3h2.3v63.1h-2.3c0-12.1-1.1-20.2-3.3-24.3-2.2-4.1-5.5-6.2-9.9-6.2l-.9 120.1h8.9c8.8 0 14.5-3.8 17.1-11.4 2.6-7.6 3.9-22.9 3.9-45.9h2.3v59.3z"/><path fill="none" d="M840.5 320h1363v280h-1363z"/><path fill="#FFF" d="M941.9 543.5h-55.3v-2h10.7V322h-10.7v-2h55.3v59.3h-2.3c0-23.2-1.3-38.6-3.7-46.1-2.5-7.5-8.3-11.2-17.3-11.2h-8.9v97.3c4.6 0 8.1-2.1 10.5-6.2 2.4-4.1 3.6-12.2 3.6-24.3h2.3v63.1h-2.3c0-12.1-1.1-20.2-3.3-24.3-2.2-4.1-5.5-6.2-9.9-6.2l-.9 120.1h8.9c8.8 0 14.5-3.8 17.1-11.4 2.6-7.6 3.9-22.9 3.9-45.9h2.3v59.3z"/><path fill="none" d="M372.5 320h1363v280h-1363z"/><path fill="#FFF" d="M450.5 541.5c8.8 0 14.5-3.8 17.1-11.4 2.6-7.6 3.9-22.9 3.9-45.9h2.3v59.3h-55.3v-2h10.7V322h-10.7v-2h34v2h-10.9v219.5h8.9z"/><path fill="none" d="M596.5 320h1363v280h-1363z"/><path fill="#FFF" d="M682.1 494.5L706.5 322h-10.9v-2h25.9v2h-10.9l-31.1 221.5h-4.3L650.4 322h-10.9v-2h34v2h-10.9l19.5 172.5z"/></svg>