<?xml version="1.0" encoding="utf-8"?>
<!-- Generator: Adobe Illustrator 21.1.0, SVG Export Plug-In . SVG Version: 6.00 Build 0)  -->
<svg version="1.1" xmlns="http://www.w3.org/2000/svg" xmlns:xlink="http://www.w3.org/1999/xlink" x="0px" y="0px"
	 viewBox="0 0 1157 550" enable-background="new 0 0 1157 550" xml:space="preserve">
<g id="Background_Layer_xA0_Image_1_" display="none">
	
		<image display="inline" overflow="visible" width="1165" height="555" xlink:href="608D9C7FAA0FFA56.png"  transform="matrix(1.0017 0 0 0.9964 -2 -3)">
	</image>
</g>
<g id="former_x0D_">
	<g>
		
			<rect x="499" y="-536.5" transform="matrix(1.208291e-03 -1 1 1.208291e-03 493.1945 783.8578)" fill="none" width="280" height="1363"/>
		<path fill="#FFFFFF" d="M26.8,225.7h10.9v2h-34v-2h10.7V6.2H3.7v-2H59v59.3h-2.3c0-23.2-1.3-38.6-3.7-46.1
			C50.5,10,44.7,6.2,35.7,6.2h-8.9v97.3c4.6,0,8.1-2.1,10.5-6.2c2.4-4.1,3.6-12.2,3.6-24.3h2.3v63.1h-2.3c0-12.1-1.1-20.2-3.3-24.3
			c-2.2-4.1-5.5-6.2-9.9-6.2L26.8,225.7z"/>
		<path fill="#FFFFFF" d="M259.8,209.8c0,5.8-1.9,10.5-5.8,14.1c-3.8,3.6-9.1,5.5-15.8,5.5c-6.7,0-12.1-2-16.3-5.9
			c-4.1-3.9-6.2-8.9-6.2-14.8V23.2c0-5.9,2.1-10.9,6.2-14.8c4.1-3.9,9.5-5.9,16.3-5.9c6.3,0,11.5,2.2,15.6,6.6c4,4.4,6,9.6,6,15.6
			V209.8z M228.1,217.4c0,2.9,0.8,5.3,2.5,7.2c1.7,1.9,4.2,2.9,7.6,2.9c2.8,0,5-1,6.7-2.9c1.7-1.9,2.5-4.3,2.5-7.2V14.5
			c0-6.7-3.1-10.1-9.2-10.1c-3,0-5.4,1-7.3,2.9c-1.9,1.9-2.8,4.3-2.8,7.2V217.4z"/>
		<path fill="#FFFFFF" d="M458.8,209v-84.4c0-4.5-1-7.4-3-8.7c-2-1.3-4.1-1.9-6.4-1.9h-8.5v112.3h10.9v2h-34v-2h10.7V6.2h-10.7v-2
			h31.7c6.5,0,11.8,2.3,15.7,6.8c3.9,4.5,5.9,9.7,5.9,15.7v67.9c0,8.4-3.9,14.3-11.8,17.6c7.9,3.4,11.8,10,11.8,19.5v84.2
			c0,4.4,1,7.2,3,8.5c2,1.2,4.2,1.9,6.5,1.9l0.9,2h-10.8c-4.1,0-7.1-1.9-9-5.6C459.7,218.9,458.8,214.4,458.8,209z M440.9,111.9h8.5
			c2.8,0,5.1-1,6.8-2.9c1.7-1.9,2.6-4.2,2.6-6.9V16.3c0-6.7-3.1-10.1-9.4-10.1h-8.5V111.9z"/>
		<path fill="#FFFFFF" d="M707.5,4.2h27.1v2h-10.9v219.5h10.9v2h-34v-2h10.7V6.2l-31.1,221.5h-4L651.1,6.2v219.5h10.9v2h-25.9v-2
			h10.9V6.2h-10.9v-2h27.2l19.7,174.5L707.5,4.2z"/>
		<path fill="#FFFFFF" d="M942.9,227.7h-55.3v-2h10.7V6.2h-10.7v-2h55.3v59.3h-2.3c0-23.2-1.3-38.6-3.7-46.1
			c-2.5-7.5-8.3-11.2-17.3-11.2h-8.9v97.3c4.6,0,8.1-2.1,10.5-6.2c2.4-4.1,3.6-12.2,3.6-24.3h2.3v63.1h-2.3
			c0-12.1-1.1-20.2-3.3-24.3c-2.2-4.1-5.5-6.2-9.9-6.2l-0.9,120.1h8.9c8.8,0,14.5-3.8,17.1-11.4c2.6-7.6,3.9-22.9,3.9-45.9h2.3
			V227.7z"/>
		<path fill="#FFFFFF" d="M1136.4,209v-84.4c0-4.5-1-7.4-3-8.7s-4.1-1.9-6.4-1.9h-8.5v112.3h10.9v2h-34v-2h10.7V6.2h-10.7v-2h31.7
			c6.5,0,11.8,2.3,15.7,6.8c3.9,4.5,5.9,9.7,5.9,15.7v67.9c0,8.4-3.9,14.3-11.8,17.6c7.9,3.4,11.8,10,11.8,19.5v84.2
			c0,4.4,1,7.2,3,8.5c2,1.2,4.2,1.9,6.5,1.9l0.9,2h-10.8c-4.1,0-7.1-1.9-9-5.6S1136.4,214.4,1136.4,209z M1118.6,111.9h8.5
			c2.8,0,5.1-1,6.8-2.9c1.7-1.9,2.6-4.2,2.6-6.9V16.3c0-6.7-3.1-10.1-9.4-10.1h-8.5V111.9z"/>
	</g>
</g>
<g id="s_x0D__x0D__1_">
	<g>
		<rect x="-41.5" y="318" fill="none" width="1363" height="280"/>
		<path fill="#FFFFFF" d="M49.2,440.1c2.3,3.8,3.5,8.3,3.5,13.2v69.1c0,6-2.1,10.9-6.2,14.8c-4.1,3.9-9.6,5.9-16.3,5.9
			c-6.7,0-12-1.8-15.8-5.5c-3.8-3.6-5.8-8.4-5.8-14.1v-60.5H21v68c0,2.9,0.8,5.3,2.5,7.2c1.7,1.9,3.9,2.9,6.7,2.9c3,0,5.4-1,7.3-2.9
			c1.9-1.9,2.8-4.3,2.8-7.2v-73.8v-3.7c0-1.9-0.1-3.3-0.4-4.3c-0.3-1-0.9-2.4-1.9-4.3l-27.4-42.6c-1.3-1.9-2-6.8-2-14.7V337
			c0-5.9,2.1-10.9,6.2-14.8c4.1-3.9,9.5-5.9,16.3-5.9c6.3,0,11.5,2.3,15.6,6.8c4,4.5,6,9.7,6,15.7v51H40.3v-61.3
			c0-6.7-3.1-10.1-9.2-10.1c-3,0-5.4,1-7.3,2.9c-1.9,1.9-2.8,4.3-2.8,7.2V388c0,2.3,0,4.3,0.1,5.9c0.1,1.6,0.6,3.2,1.4,4.7
			L49.2,440.1z"/>
	</g>
</g>
<g id="s_x0D__x0D_">
	<g>
		<rect x="1053.5" y="318" fill="none" width="1363" height="280"/>
		<path fill="#FFFFFF" d="M1144.2,440.1c2.3,3.8,3.5,8.3,3.5,13.2v69.1c0,6-2.1,10.9-6.2,14.8c-4.1,3.9-9.6,5.9-16.3,5.9
			c-6.7,0-12-1.8-15.8-5.5c-3.8-3.6-5.8-8.4-5.8-14.1v-60.5h12.4v68c0,2.9,0.8,5.3,2.5,7.2c1.7,1.9,3.9,2.9,6.7,2.9
			c3,0,5.4-1,7.3-2.9c1.9-1.9,2.8-4.3,2.8-7.2v-73.8v-3.7c0-1.9-0.1-3.3-0.4-4.3c-0.3-1-0.9-2.4-1.9-4.3l-27.4-42.6
			c-1.3-1.9-2-6.8-2-14.7V337c0-5.9,2.1-10.9,6.2-14.8c4.1-3.9,9.5-5.9,16.3-5.9c6.3,0,11.5,2.3,15.6,6.8c4,4.5,6,9.7,6,15.7v51
			h-12.4v-61.3c0-6.7-3.1-10.1-9.2-10.1c-3,0-5.4,1-7.3,2.9c-1.9,1.9-2.8,4.3-2.8,7.2V388c0,2.3,0,4.3,0.1,5.9
			c0.1,1.6,0.6,3.2,1.4,4.7L1144.2,440.1z"/>
	</g>
</g>
<g id="e_x0D__1_">
	<g>
		<rect x="162.5" y="320" fill="none" width="1363" height="280"/>
		<path fill="#FFFFFF" d="M263.9,543.5h-55.3v-2h10.7V322h-10.7v-2h55.3v59.3h-2.3c0-23.2-1.3-38.6-3.7-46.1
			c-2.5-7.5-8.3-11.2-17.3-11.2h-8.9v97.3c4.6,0,8.1-2.1,10.5-6.2c2.4-4.1,3.6-12.2,3.6-24.3h2.3v63.1h-2.3
			c0-12.1-1.1-20.2-3.3-24.3c-2.2-4.1-5.5-6.2-9.9-6.2l-0.9,120.1h8.9c8.8,0,14.5-3.8,17.1-11.4c2.6-7.6,3.9-22.9,3.9-45.9h2.3
			V543.5z"/>
	</g>
</g>
<g id="e_x0D_">
	<g>
		<rect x="840.5" y="320" fill="none" width="1363" height="280"/>
		<path fill="#FFFFFF" d="M941.9,543.5h-55.3v-2h10.7V322h-10.7v-2h55.3v59.3h-2.3c0-23.2-1.3-38.6-3.7-46.1
			c-2.5-7.5-8.3-11.2-17.3-11.2h-8.9v97.3c4.6,0,8.1-2.1,10.5-6.2c2.4-4.1,3.6-12.2,3.6-24.3h2.3v63.1h-2.3
			c0-12.1-1.1-20.2-3.3-24.3c-2.2-4.1-5.5-6.2-9.9-6.2l-0.9,120.1h8.9c8.8,0,14.5-3.8,17.1-11.4c2.6-7.6,3.9-22.9,3.9-45.9h2.3
			V543.5z"/>
	</g>
</g>
<g id="l_x0D_">
	<g>
		<rect x="372.5" y="320" fill="none" width="1363" height="280"/>
		<path fill="#FFFFFF" d="M450.5,541.5c8.8,0,14.5-3.8,17.1-11.4c2.6-7.6,3.9-22.9,3.9-45.9h2.3v59.3h-55.3v-2h10.7V322h-10.7v-2h34
			v2h-10.9v219.5H450.5z"/>
	</g>
</g>
<g id="v_x0D_">
	<g>
		<rect x="596.5" y="320" fill="none" width="1363" height="280"/>
		<path fill="#FFFFFF" d="M682.1,494.5L706.5,322h-10.9v-2h25.9v2h-10.9l-31.1,221.5h-4.3L650.4,322h-10.9v-2h34v2l-10.9,0
			L682.1,494.5z"/>
	</g>
</g>
</svg>
